<mxfile host="Electron" modified="2024-05-23T15:51:54.726Z" agent="Mozilla/5.0 (Windows NT 10.0; Win64; x64) AppleWebKit/537.36 (KHTML, like Gecko) draw.io/23.0.2 Chrome/120.0.6099.109 Electron/28.1.0 Safari/537.36" etag="NwJcdKAZU_pCHXB-N0Bi" version="23.0.2" type="device" pages="2">
  <diagram name="Page-1" id="Lq9qpSFbJBZLgvZtVF-L">
    <mxGraphModel dx="794" dy="519" grid="1" gridSize="10" guides="1" tooltips="1" connect="1" arrows="1" fold="1" page="1" pageScale="1" pageWidth="1169" pageHeight="827" math="0" shadow="0">
      <root>
        <mxCell id="0" />
        <mxCell id="1" parent="0" />
        <mxCell id="0EEkU6QzbTaW5CBO2v0f-3" style="edgeStyle=orthogonalEdgeStyle;rounded=0;orthogonalLoop=1;jettySize=auto;html=1;entryX=1;entryY=0.5;entryDx=0;entryDy=0;" parent="1" source="0EEkU6QzbTaW5CBO2v0f-1" target="0EEkU6QzbTaW5CBO2v0f-2" edge="1">
          <mxGeometry relative="1" as="geometry">
            <Array as="points">
              <mxPoint x="480" y="155" />
              <mxPoint x="480" y="425" />
            </Array>
          </mxGeometry>
        </mxCell>
        <mxCell id="0EEkU6QzbTaW5CBO2v0f-4" value="action" style="edgeLabel;html=1;align=center;verticalAlign=middle;resizable=0;points=[];" parent="0EEkU6QzbTaW5CBO2v0f-3" vertex="1" connectable="0">
          <mxGeometry x="-0.0281" y="-4" relative="1" as="geometry">
            <mxPoint as="offset" />
          </mxGeometry>
        </mxCell>
        <mxCell id="0EEkU6QzbTaW5CBO2v0f-15" value="Token Vocabulary" style="edgeLabel;html=1;align=center;verticalAlign=middle;resizable=0;points=[];" parent="0EEkU6QzbTaW5CBO2v0f-3" vertex="1" connectable="0">
          <mxGeometry x="-0.0575" y="-1" relative="1" as="geometry">
            <mxPoint y="-15" as="offset" />
          </mxGeometry>
        </mxCell>
        <mxCell id="0EEkU6QzbTaW5CBO2v0f-1" value="agent" style="rounded=1;whiteSpace=wrap;html=1;" parent="1" vertex="1">
          <mxGeometry x="225" y="110" width="120" height="90" as="geometry" />
        </mxCell>
        <mxCell id="0EEkU6QzbTaW5CBO2v0f-5" style="edgeStyle=orthogonalEdgeStyle;rounded=0;orthogonalLoop=1;jettySize=auto;html=1;entryX=0;entryY=0.5;entryDx=0;entryDy=0;" parent="1" source="0EEkU6QzbTaW5CBO2v0f-2" target="0EEkU6QzbTaW5CBO2v0f-1" edge="1">
          <mxGeometry relative="1" as="geometry">
            <Array as="points">
              <mxPoint x="110" y="425" />
              <mxPoint x="110" y="155" />
            </Array>
          </mxGeometry>
        </mxCell>
        <mxCell id="0EEkU6QzbTaW5CBO2v0f-6" value="state" style="edgeLabel;html=1;align=center;verticalAlign=middle;resizable=0;points=[];" parent="0EEkU6QzbTaW5CBO2v0f-5" vertex="1" connectable="0">
          <mxGeometry x="0.0624" y="3" relative="1" as="geometry">
            <mxPoint as="offset" />
          </mxGeometry>
        </mxCell>
        <mxCell id="0EEkU6QzbTaW5CBO2v0f-16" value="Current Context" style="edgeLabel;html=1;align=center;verticalAlign=middle;resizable=0;points=[];" parent="0EEkU6QzbTaW5CBO2v0f-5" vertex="1" connectable="0">
          <mxGeometry x="0.1686" y="3" relative="1" as="geometry">
            <mxPoint as="offset" />
          </mxGeometry>
        </mxCell>
        <mxCell id="0EEkU6QzbTaW5CBO2v0f-11" style="edgeStyle=orthogonalEdgeStyle;rounded=0;orthogonalLoop=1;jettySize=auto;html=1;exitX=0.5;exitY=0;exitDx=0;exitDy=0;entryX=0.5;entryY=1;entryDx=0;entryDy=0;" parent="1" source="0EEkU6QzbTaW5CBO2v0f-2" target="0EEkU6QzbTaW5CBO2v0f-10" edge="1">
          <mxGeometry relative="1" as="geometry" />
        </mxCell>
        <mxCell id="0EEkU6QzbTaW5CBO2v0f-12" value="output" style="edgeLabel;html=1;align=center;verticalAlign=middle;resizable=0;points=[];" parent="0EEkU6QzbTaW5CBO2v0f-11" vertex="1" connectable="0">
          <mxGeometry x="-0.1" y="3" relative="1" as="geometry">
            <mxPoint as="offset" />
          </mxGeometry>
        </mxCell>
        <mxCell id="0EEkU6QzbTaW5CBO2v0f-2" value="Environment / LLM cntext" style="rounded=1;whiteSpace=wrap;html=1;" parent="1" vertex="1">
          <mxGeometry x="225" y="390" width="120" height="70" as="geometry" />
        </mxCell>
        <mxCell id="0EEkU6QzbTaW5CBO2v0f-13" style="edgeStyle=orthogonalEdgeStyle;rounded=0;orthogonalLoop=1;jettySize=auto;html=1;entryX=0.5;entryY=1;entryDx=0;entryDy=0;" parent="1" source="0EEkU6QzbTaW5CBO2v0f-10" target="0EEkU6QzbTaW5CBO2v0f-1" edge="1">
          <mxGeometry relative="1" as="geometry" />
        </mxCell>
        <mxCell id="0EEkU6QzbTaW5CBO2v0f-14" value="Reward" style="edgeLabel;html=1;align=center;verticalAlign=middle;resizable=0;points=[];" parent="0EEkU6QzbTaW5CBO2v0f-13" vertex="1" connectable="0">
          <mxGeometry x="-0.1429" y="1" relative="1" as="geometry">
            <mxPoint as="offset" />
          </mxGeometry>
        </mxCell>
        <mxCell id="0EEkU6QzbTaW5CBO2v0f-10" value="Reward Model (classifier M)" style="ellipse;whiteSpace=wrap;html=1;" parent="1" vertex="1">
          <mxGeometry x="240" y="270" width="90" height="80" as="geometry" />
        </mxCell>
        <mxCell id="0EEkU6QzbTaW5CBO2v0f-17" value="Objective: generate aligned output" style="text;html=1;align=center;verticalAlign=middle;resizable=0;points=[];autosize=1;strokeColor=none;fillColor=none;" parent="1" vertex="1">
          <mxGeometry x="15" y="118" width="210" height="30" as="geometry" />
        </mxCell>
      </root>
    </mxGraphModel>
  </diagram>
  <diagram id="IxwTBBVQ0J26kDZkjqDD" name="Page-2">
    <mxGraphModel dx="794" dy="519" grid="1" gridSize="10" guides="1" tooltips="1" connect="1" arrows="1" fold="1" page="1" pageScale="1" pageWidth="1169" pageHeight="827" math="0" shadow="0">
      <root>
        <mxCell id="0" />
        <mxCell id="1" parent="0" />
        <mxCell id="fgsNIFmgVS2cKj3G5Hwi-38" value="" style="rounded=1;whiteSpace=wrap;html=1;fillColor=default;strokeColor=none;" vertex="1" parent="1">
          <mxGeometry x="10" y="20" width="690" height="470" as="geometry" />
        </mxCell>
        <mxCell id="fgsNIFmgVS2cKj3G5Hwi-4" value="Customer" style="swimlane;fontStyle=1;childLayout=stackLayout;horizontal=1;startSize=26;fillColor=#fff2cc;horizontalStack=0;resizeParent=1;resizeParentMax=0;resizeLast=0;collapsible=1;marginBottom=0;whiteSpace=wrap;html=1;strokeColor=#d6b656;fontSize=14;" vertex="1" parent="1">
          <mxGeometry x="50" y="50" width="210" height="104" as="geometry" />
        </mxCell>
        <mxCell id="fgsNIFmgVS2cKj3G5Hwi-5" value="+ customerID: Number" style="text;strokeColor=#d6b656;fillColor=#fff2cc;align=left;verticalAlign=top;spacingLeft=4;spacingRight=4;overflow=hidden;rotatable=0;points=[[0,0.5],[1,0.5]];portConstraint=eastwest;whiteSpace=wrap;html=1;" vertex="1" parent="fgsNIFmgVS2cKj3G5Hwi-4">
          <mxGeometry y="26" width="210" height="26" as="geometry" />
        </mxCell>
        <mxCell id="fgsNIFmgVS2cKj3G5Hwi-6" value="+ name: string" style="text;strokeColor=#d6b656;fillColor=#fff2cc;align=left;verticalAlign=top;spacingLeft=4;spacingRight=4;overflow=hidden;rotatable=0;points=[[0,0.5],[1,0.5]];portConstraint=eastwest;whiteSpace=wrap;html=1;" vertex="1" parent="fgsNIFmgVS2cKj3G5Hwi-4">
          <mxGeometry y="52" width="210" height="26" as="geometry" />
        </mxCell>
        <mxCell id="fgsNIFmgVS2cKj3G5Hwi-7" value="+ customerType: CustomerType" style="text;strokeColor=#d6b656;fillColor=#fff2cc;align=left;verticalAlign=top;spacingLeft=4;spacingRight=4;overflow=hidden;rotatable=0;points=[[0,0.5],[1,0.5]];portConstraint=eastwest;whiteSpace=wrap;html=1;" vertex="1" parent="fgsNIFmgVS2cKj3G5Hwi-4">
          <mxGeometry y="78" width="210" height="26" as="geometry" />
        </mxCell>
        <mxCell id="fgsNIFmgVS2cKj3G5Hwi-23" style="edgeStyle=orthogonalEdgeStyle;rounded=0;orthogonalLoop=1;jettySize=auto;html=1;endArrow=none;endFill=0;startArrow=diamondThin;startFill=0;" edge="1" parent="1" source="fgsNIFmgVS2cKj3G5Hwi-8" target="fgsNIFmgVS2cKj3G5Hwi-12">
          <mxGeometry relative="1" as="geometry" />
        </mxCell>
        <mxCell id="fgsNIFmgVS2cKj3G5Hwi-30" value="0..1" style="edgeLabel;html=1;align=center;verticalAlign=middle;resizable=0;points=[];" vertex="1" connectable="0" parent="fgsNIFmgVS2cKj3G5Hwi-23">
          <mxGeometry x="-0.7056" y="-1" relative="1" as="geometry">
            <mxPoint y="19" as="offset" />
          </mxGeometry>
        </mxCell>
        <mxCell id="fgsNIFmgVS2cKj3G5Hwi-31" value="*" style="edgeLabel;html=1;align=center;verticalAlign=middle;resizable=0;points=[];" vertex="1" connectable="0" parent="fgsNIFmgVS2cKj3G5Hwi-23">
          <mxGeometry x="0.7778" y="1" relative="1" as="geometry">
            <mxPoint x="3" y="19" as="offset" />
          </mxGeometry>
        </mxCell>
        <mxCell id="fgsNIFmgVS2cKj3G5Hwi-33" value="transactions" style="edgeLabel;html=1;align=center;verticalAlign=middle;resizable=0;points=[];" vertex="1" connectable="0" parent="fgsNIFmgVS2cKj3G5Hwi-23">
          <mxGeometry x="-0.6722" y="2" relative="1" as="geometry">
            <mxPoint x="10" y="-10" as="offset" />
          </mxGeometry>
        </mxCell>
        <mxCell id="fgsNIFmgVS2cKj3G5Hwi-8" value="Account" style="swimlane;fontStyle=1;childLayout=stackLayout;horizontal=1;startSize=26;fillColor=#fff2cc;horizontalStack=0;resizeParent=1;resizeParentMax=0;resizeLast=0;collapsible=1;marginBottom=0;whiteSpace=wrap;html=1;strokeColor=#d6b656;fontSize=14;" vertex="1" parent="1">
          <mxGeometry x="80" y="221" width="140" height="130" as="geometry" />
        </mxCell>
        <mxCell id="fgsNIFmgVS2cKj3G5Hwi-9" value="+ accountID: Number" style="text;strokeColor=#d6b656;fillColor=#fff2cc;align=left;verticalAlign=top;spacingLeft=4;spacingRight=4;overflow=hidden;rotatable=0;points=[[0,0.5],[1,0.5]];portConstraint=eastwest;whiteSpace=wrap;html=1;" vertex="1" parent="fgsNIFmgVS2cKj3G5Hwi-8">
          <mxGeometry y="26" width="140" height="26" as="geometry" />
        </mxCell>
        <mxCell id="fgsNIFmgVS2cKj3G5Hwi-10" value="+ accountType: String" style="text;strokeColor=#d6b656;fillColor=#fff2cc;align=left;verticalAlign=top;spacingLeft=4;spacingRight=4;overflow=hidden;rotatable=0;points=[[0,0.5],[1,0.5]];portConstraint=eastwest;whiteSpace=wrap;html=1;" vertex="1" parent="fgsNIFmgVS2cKj3G5Hwi-8">
          <mxGeometry y="52" width="140" height="26" as="geometry" />
        </mxCell>
        <mxCell id="fgsNIFmgVS2cKj3G5Hwi-34" value="+ balance: Number" style="text;strokeColor=#d6b656;fillColor=#fff2cc;align=left;verticalAlign=top;spacingLeft=4;spacingRight=4;overflow=hidden;rotatable=0;points=[[0,0.5],[1,0.5]];portConstraint=eastwest;whiteSpace=wrap;html=1;" vertex="1" parent="fgsNIFmgVS2cKj3G5Hwi-8">
          <mxGeometry y="78" width="140" height="26" as="geometry" />
        </mxCell>
        <mxCell id="fgsNIFmgVS2cKj3G5Hwi-11" value="+ status: AccountStatus" style="text;strokeColor=#d6b656;fillColor=#fff2cc;align=left;verticalAlign=top;spacingLeft=4;spacingRight=4;overflow=hidden;rotatable=0;points=[[0,0.5],[1,0.5]];portConstraint=eastwest;whiteSpace=wrap;html=1;" vertex="1" parent="fgsNIFmgVS2cKj3G5Hwi-8">
          <mxGeometry y="104" width="140" height="26" as="geometry" />
        </mxCell>
        <mxCell id="fgsNIFmgVS2cKj3G5Hwi-12" value="FinancialTransaction" style="swimlane;fontStyle=1;childLayout=stackLayout;horizontal=1;startSize=26;fillColor=#fff2cc;horizontalStack=0;resizeParent=1;resizeParentMax=0;resizeLast=0;collapsible=1;marginBottom=0;whiteSpace=wrap;html=1;strokeColor=#d6b656;fontSize=14;" vertex="1" parent="1">
          <mxGeometry x="350" y="210" width="210" height="152" as="geometry" />
        </mxCell>
        <mxCell id="fgsNIFmgVS2cKj3G5Hwi-13" value="+ transactionID: Number" style="text;strokeColor=#d6b656;fillColor=#fff2cc;align=left;verticalAlign=top;spacingLeft=4;spacingRight=4;overflow=hidden;rotatable=0;points=[[0,0.5],[1,0.5]];portConstraint=eastwest;whiteSpace=wrap;html=1;" vertex="1" parent="fgsNIFmgVS2cKj3G5Hwi-12">
          <mxGeometry y="26" width="210" height="26" as="geometry" />
        </mxCell>
        <mxCell id="fgsNIFmgVS2cKj3G5Hwi-14" value="+ transactionType: TransactionType" style="text;strokeColor=#d6b656;fillColor=#fff2cc;align=left;verticalAlign=top;spacingLeft=4;spacingRight=4;overflow=hidden;rotatable=0;points=[[0,0.5],[1,0.5]];portConstraint=eastwest;whiteSpace=wrap;html=1;" vertex="1" parent="fgsNIFmgVS2cKj3G5Hwi-12">
          <mxGeometry y="52" width="210" height="26" as="geometry" />
        </mxCell>
        <mxCell id="fgsNIFmgVS2cKj3G5Hwi-19" value="+ accountSource: Number" style="text;strokeColor=#d6b656;fillColor=#fff2cc;align=left;verticalAlign=top;spacingLeft=4;spacingRight=4;overflow=hidden;rotatable=0;points=[[0,0.5],[1,0.5]];portConstraint=eastwest;whiteSpace=wrap;html=1;" vertex="1" parent="fgsNIFmgVS2cKj3G5Hwi-12">
          <mxGeometry y="78" width="210" height="26" as="geometry" />
        </mxCell>
        <mxCell id="fgsNIFmgVS2cKj3G5Hwi-18" value="+ accountDestination: Number" style="text;strokeColor=#d6b656;fillColor=#fff2cc;align=left;verticalAlign=top;spacingLeft=4;spacingRight=4;overflow=hidden;rotatable=0;points=[[0,0.5],[1,0.5]];portConstraint=eastwest;whiteSpace=wrap;html=1;" vertex="1" parent="fgsNIFmgVS2cKj3G5Hwi-12">
          <mxGeometry y="104" width="210" height="22" as="geometry" />
        </mxCell>
        <mxCell id="fgsNIFmgVS2cKj3G5Hwi-15" value="+ amount: Number" style="text;strokeColor=#d6b656;fillColor=#fff2cc;align=left;verticalAlign=top;spacingLeft=4;spacingRight=4;overflow=hidden;rotatable=0;points=[[0,0.5],[1,0.5]];portConstraint=eastwest;whiteSpace=wrap;html=1;" vertex="1" parent="fgsNIFmgVS2cKj3G5Hwi-12">
          <mxGeometry y="126" width="210" height="26" as="geometry" />
        </mxCell>
        <mxCell id="fgsNIFmgVS2cKj3G5Hwi-16" value="&amp;lt;&amp;lt;enumeration&amp;gt;&amp;gt;&lt;br&gt;&lt;b&gt;TransactionType&lt;/b&gt;" style="swimlane;fontStyle=0;align=center;verticalAlign=top;childLayout=stackLayout;horizontal=1;startSize=40;horizontalStack=0;resizeParent=1;resizeParentMax=0;resizeLast=0;collapsible=0;marginBottom=0;html=1;whiteSpace=wrap;fillColor=#e1d5e7;strokeColor=#9673a6;" vertex="1" parent="1">
          <mxGeometry x="580" y="230" width="100" height="90" as="geometry" />
        </mxCell>
        <mxCell id="fgsNIFmgVS2cKj3G5Hwi-26" value="Credit&lt;br&gt;Debit" style="text;html=1;strokeColor=#9673a6;fillColor=#e1d5e7;align=left;verticalAlign=middle;spacingLeft=4;spacingRight=4;overflow=hidden;rotatable=0;points=[[0,0.5],[1,0.5]];portConstraint=eastwest;whiteSpace=wrap;" vertex="1" parent="fgsNIFmgVS2cKj3G5Hwi-16">
          <mxGeometry y="40" width="100" height="50" as="geometry" />
        </mxCell>
        <mxCell id="fgsNIFmgVS2cKj3G5Hwi-20" value="&amp;lt;&amp;lt;enumeration&amp;gt;&amp;gt;&lt;br&gt;&lt;b&gt;CustomerType&lt;/b&gt;" style="swimlane;fontStyle=0;align=center;verticalAlign=top;childLayout=stackLayout;horizontal=1;startSize=40;horizontalStack=0;resizeParent=1;resizeParentMax=0;resizeLast=0;collapsible=0;marginBottom=0;html=1;whiteSpace=wrap;fillColor=#e1d5e7;strokeColor=#9673a6;" vertex="1" parent="1">
          <mxGeometry x="280" y="64" width="100" height="90" as="geometry" />
        </mxCell>
        <mxCell id="fgsNIFmgVS2cKj3G5Hwi-27" value="Business&lt;br&gt;Individual" style="text;html=1;strokeColor=#9673a6;fillColor=#e1d5e7;align=left;verticalAlign=middle;spacingLeft=4;spacingRight=4;overflow=hidden;rotatable=0;points=[[0,0.5],[1,0.5]];portConstraint=eastwest;whiteSpace=wrap;" vertex="1" parent="fgsNIFmgVS2cKj3G5Hwi-20">
          <mxGeometry y="40" width="100" height="50" as="geometry" />
        </mxCell>
        <mxCell id="fgsNIFmgVS2cKj3G5Hwi-22" style="rounded=0;orthogonalLoop=1;jettySize=auto;html=1;entryX=0.55;entryY=0.013;entryDx=0;entryDy=0;entryPerimeter=0;endArrow=none;endFill=0;startArrow=diamondThin;startFill=0;" edge="1" parent="1" source="fgsNIFmgVS2cKj3G5Hwi-4" target="fgsNIFmgVS2cKj3G5Hwi-8">
          <mxGeometry relative="1" as="geometry" />
        </mxCell>
        <mxCell id="fgsNIFmgVS2cKj3G5Hwi-28" value="0..1" style="edgeLabel;html=1;align=center;verticalAlign=middle;resizable=0;points=[];" vertex="1" connectable="0" parent="fgsNIFmgVS2cKj3G5Hwi-22">
          <mxGeometry x="-0.7022" y="-1" relative="1" as="geometry">
            <mxPoint x="-15" as="offset" />
          </mxGeometry>
        </mxCell>
        <mxCell id="fgsNIFmgVS2cKj3G5Hwi-29" value="*" style="edgeLabel;html=1;align=center;verticalAlign=middle;resizable=0;points=[];" vertex="1" connectable="0" parent="fgsNIFmgVS2cKj3G5Hwi-22">
          <mxGeometry x="0.6953" relative="1" as="geometry">
            <mxPoint x="-11" y="2" as="offset" />
          </mxGeometry>
        </mxCell>
        <mxCell id="fgsNIFmgVS2cKj3G5Hwi-32" value="accounts" style="edgeLabel;html=1;align=center;verticalAlign=middle;resizable=0;points=[];" vertex="1" connectable="0" parent="fgsNIFmgVS2cKj3G5Hwi-22">
          <mxGeometry x="-0.6463" y="-1" relative="1" as="geometry">
            <mxPoint x="25" as="offset" />
          </mxGeometry>
        </mxCell>
        <mxCell id="fgsNIFmgVS2cKj3G5Hwi-35" value="&amp;lt;&amp;lt;enumeration&amp;gt;&amp;gt;&lt;br&gt;&lt;b&gt;AccountStatus&lt;/b&gt;" style="swimlane;fontStyle=0;align=center;verticalAlign=top;childLayout=stackLayout;horizontal=1;startSize=40;horizontalStack=0;resizeParent=1;resizeParentMax=0;resizeLast=0;collapsible=0;marginBottom=0;html=1;whiteSpace=wrap;fillColor=#e1d5e7;strokeColor=#9673a6;" vertex="1" parent="1">
          <mxGeometry x="100" y="368.5" width="100" height="100" as="geometry" />
        </mxCell>
        <mxCell id="fgsNIFmgVS2cKj3G5Hwi-36" value="Active&lt;br&gt;Suspended&lt;br&gt;Inactive" style="text;html=1;strokeColor=#9673a6;fillColor=#e1d5e7;align=left;verticalAlign=middle;spacingLeft=4;spacingRight=4;overflow=hidden;rotatable=0;points=[[0,0.5],[1,0.5]];portConstraint=eastwest;whiteSpace=wrap;" vertex="1" parent="fgsNIFmgVS2cKj3G5Hwi-35">
          <mxGeometry y="40" width="100" height="60" as="geometry" />
        </mxCell>
      </root>
    </mxGraphModel>
  </diagram>
</mxfile>
